<?xml version="1.0" encoding="utf-8"?>
<!-- Generator: Adobe Illustrator 19.1.0, SVG Export Plug-In . SVG Version: 6.00 Build 0)  -->
<svg version="1.1" id="Layer_1" xmlns="http://www.w3.org/2000/svg" xmlns:xlink="http://www.w3.org/1999/xlink" x="0px" y="0px"
	 viewBox="0 0 20 28" style="enable-background:new 0 0 20 28;" xml:space="preserve">
<style type="text/css">
	.st0{fill:#008348;}
</style>
<g>
	<g>
		<path class="st0" d="M0.6,15.3c0-3.8,0-10.1,0-13.9c0-0.7,0.2-0.9,0.9-0.9c4.6,0,9.2,0,13.9,0c0.4,0,0.6,0.1,0.9,0.4
			c1,1,2.1,2.1,3.1,3.1c0.2,0.2,0.3,0.5,0.3,0.8c0,6.5,0,15.5,0,21.9c0,0.6-0.2,0.9-0.9,0.9c-5.8,0-11.6,0-17.4,0
			c-0.7,0-0.9-0.2-0.9-0.9C0.6,22.9,0.6,19.1,0.6,15.3z M2,26.2c5.5,0,10.9,0,16.3,0c0-5.9,0-14.4,0-20.3c-1.1,0-2.2,0-3.3,0
			c-0.6,0-0.8-0.2-0.8-0.8c0-1,0-1.9,0-2.9c0-0.1,0-0.3,0-0.4c-4.1,0-8.2,0-12.3,0C2,9.1,2,18.9,2,26.2z M15.6,2.2
			c0,0.8,0,1.5,0,2.3c0.8,0,1.6,0,2.3,0C17.2,3.7,16.4,3,15.6,2.2z"/>
		<path class="st0" d="M10.2,11.2c1.6,0,3.1,0,4.7,0c0.4,0,0.7,0.3,0.7,0.7c0,0.4-0.3,0.7-0.7,0.7c0,0-0.1,0-0.1,0
			c-3.1,0-6.2,0-9.2,0c-0.5,0-0.8-0.3-0.8-0.7c0-0.4,0.3-0.7,0.9-0.7C7.1,11.2,8.6,11.2,10.2,11.2z"/>
		<path class="st0" d="M10.1,15.3c-1.5,0-3.1,0-4.6,0c-0.5,0-0.9-0.3-0.9-0.7c0-0.4,0.3-0.7,0.8-0.7c3.1,0,6.2,0,9.2,0
			c0.5,0,0.8,0.3,0.8,0.7c0,0.4-0.3,0.7-0.9,0.7C13.2,15.3,11.7,15.3,10.1,15.3z"/>
		<path class="st0" d="M10.1,18c-1.5,0-3.1,0-4.6,0c-0.5,0-0.8-0.3-0.8-0.7c0-0.4,0.3-0.7,0.8-0.7c3.1,0,6.2,0,9.3,0
			c0.5,0,0.8,0.3,0.8,0.7c0,0.4-0.3,0.7-0.8,0.7C13.2,18,11.6,18,10.1,18z"/>
		<path class="st0" d="M10.2,19.4c1.6,0,3.1,0,4.7,0c0.4,0,0.7,0.3,0.7,0.7c0,0.4-0.3,0.7-0.7,0.7c0,0-0.1,0-0.1,0
			c-3.1,0-6.2,0-9.2,0c-0.5,0-0.8-0.3-0.8-0.7c0-0.4,0.3-0.7,0.9-0.7C7.1,19.4,8.6,19.4,10.2,19.4z"/>
		<path class="st0" d="M10.2,22.1c1.6,0,3.1,0,4.7,0c0.4,0,0.7,0.3,0.7,0.7c0,0.4-0.3,0.7-0.7,0.7c0,0-0.1,0-0.1,0
			c-3.1,0-6.2,0-9.2,0c-0.5,0-0.8-0.3-0.8-0.7c0-0.4,0.3-0.7,0.9-0.7C7.1,22.1,8.6,22.1,10.2,22.1z"/>
	</g>
</g>
</svg>
