<?xml version="1.0" encoding="utf-8"?>
<!-- Generator: Adobe Illustrator 19.1.0, SVG Export Plug-In . SVG Version: 6.00 Build 0)  -->
<svg version="1.1" id="Layer_1" xmlns="http://www.w3.org/2000/svg" xmlns:xlink="http://www.w3.org/1999/xlink" x="0px" y="0px"
	 viewBox="0 0 29 29" style="enable-background:new 0 0 29 29;" xml:space="preserve">
<style type="text/css">
	.st0{fill-rule:evenodd;clip-rule:evenodd;fill:#888888;}
</style>
<path class="st0" d="M25.4,12.3H23c0.2,0.7,0.3,1.4,0.3,2.2c0,4.8-3.9,8.7-8.7,8.7c-4.8,0-8.7-3.9-8.7-8.7c0-0.8,0.1-1.5,0.3-2.2
	H3.6v12c0,0.6,0.5,1.1,1.1,1.1h19.7c0.6,0,1.1-0.5,1.1-1.1V12.3z M25.4,4.7c0-0.6-0.5-1.1-1.1-1.1h-3.3c-0.6,0-1.1,0.5-1.1,1.1v3.3
	C20,8.5,20.5,9,21.1,9h3.3c0.6,0,1.1-0.5,1.1-1.1V4.7z M14.5,9c-3,0-5.5,2.4-5.5,5.5c0,3,2.4,5.5,5.5,5.5s5.5-2.4,5.5-5.5
	C20,11.5,17.5,9,14.5,9L14.5,9z M25.4,28.7H3.6c-1.8,0-3.3-1.5-3.3-3.3V3.6c0-1.8,1.5-3.3,3.3-3.3h21.9c1.8,0,3.3,1.5,3.3,3.3v21.9
	C28.7,27.2,27.2,28.7,25.4,28.7L25.4,28.7z"/>
</svg>
