<?xml version="1.0" encoding="utf-8"?>
<!-- Generator: Adobe Illustrator 19.1.0, SVG Export Plug-In . SVG Version: 6.00 Build 0)  -->
<svg version="1.1" id="Layer_1" xmlns="http://www.w3.org/2000/svg" xmlns:xlink="http://www.w3.org/1999/xlink" x="0px" y="0px"
	 viewBox="0 0 18 30" style="enable-background:new 0 0 18 30;" xml:space="preserve">
<style type="text/css">
	.st0{fill:#008348;}
</style>
<path class="st0" d="M0.4,15c0-3.9,0-7.8,0-11.7c0-1.1,0.3-2,1.4-2.5c0.4-0.2,0.9-0.3,1.4-0.3c3.9,0,7.9,0,11.8,0
	c1.7,0,2.7,1.1,2.7,2.8c0,1.6,0,3.2,0,4.7c0,6.2,0,12.5,0,18.7c0,0.4,0,0.8-0.1,1.1c-0.3,1.1-1.2,1.8-2.5,1.8c-4,0-8,0-12,0
	c-1.5,0-2.4-1-2.6-2.4c0-0.2,0-0.4,0-0.6C0.4,22.7,0.4,18.9,0.4,15z M1.9,3.6c0,7,0,14,0,21c4.8,0,9.5,0,14.3,0c0-0.2,0-0.3,0-0.5
	c0-6.7,0-13.3,0-20c0-0.4-0.1-0.5-0.5-0.5c-4.4,0-8.9,0-13.3,0C2.2,3.6,2,3.6,1.9,3.6z M9,2.4c0.9,0,1.9,0,2.8,0
	c0.2,0,0.5,0,0.5-0.3c0-0.3-0.2-0.4-0.5-0.4c-1.9,0-3.8,0-5.7,0c-0.2,0-0.5,0-0.5,0.4c0,0.3,0.2,0.3,0.5,0.3C7.1,2.4,8.1,2.4,9,2.4z
	 M9,28.2c0.5,0,1-0.4,1-1c0-0.5-0.4-1-1-1c-0.5,0-1,0.5-1,1C8,27.8,8.4,28.2,9,28.2z"/>
</svg>
