<?xml version="1.0" encoding="utf-8"?>
<!-- Generator: Adobe Illustrator 19.1.0, SVG Export Plug-In . SVG Version: 6.00 Build 0)  -->
<svg version="1.1" id="Layer_1" xmlns="http://www.w3.org/2000/svg" xmlns:xlink="http://www.w3.org/1999/xlink" x="0px" y="0px"
	 viewBox="0 0 29 29" style="enable-background:new 0 0 29 29;" xml:space="preserve">
<style type="text/css">
	.st0{fill:#888888;}
</style>
<g>
	<path class="st0" d="M14.5,0.2C6.6,0.2,0.2,6.6,0.2,14.5c0,5.9,3.5,10.9,8.6,13.1c0-1,0-2.2,0.2-3.3c0.3-1.2,1.8-7.8,1.8-7.8
		s-0.5-0.9-0.5-2.3c0-2.1,1.2-3.7,2.8-3.7c1.3,0,1.9,1,1.9,2.1c0,1.3-0.8,3.3-1.3,5.1c-0.4,1.5,0.8,2.8,2.3,2.8
		c2.7,0,4.5-3.5,4.5-7.6c0-3.1-2.1-5.5-5.9-5.5c-4.3,0-7,3.2-7,6.8c0,1.2,0.4,2.1,0.9,2.8c0.3,0.3,0.3,0.4,0.2,0.8
		c-0.1,0.3-0.2,0.9-0.3,1.1c-0.1,0.4-0.4,0.5-0.7,0.4c-2-0.8-2.9-3-2.9-5.5C4.8,9.9,8.3,5,15,5c5.5,0,9,3.9,9,8.2
		c0,5.6-3.1,9.8-7.7,9.8c-1.5,0-3-0.8-3.5-1.8c0,0-0.8,3.3-1,3.9c-0.3,1.1-0.9,2.2-1.4,3.1c1.3,0.4,2.6,0.6,4,0.6
		c7.9,0,14.3-6.4,14.3-14.3C28.8,6.6,22.4,0.2,14.5,0.2z"/>
</g>
</svg>
