<?xml version="1.0" encoding="utf-8"?>
<!-- Generator: Adobe Illustrator 19.1.0, SVG Export Plug-In . SVG Version: 6.00 Build 0)  -->
<svg version="1.1" id="Layer_1" xmlns="http://www.w3.org/2000/svg" xmlns:xlink="http://www.w3.org/1999/xlink" x="0px" y="0px"
	 viewBox="38 -42 105 105" style="enable-background:new 38 -42 105 105;" xml:space="preserve">
<style type="text/css">
	.st0{fill:#FFFFFF;}
</style>
<g>
	<path class="st0" d="M75.7,38.1v-55.2l41.1,27.6L75.7,38.1z M77.7-13.3v47.6l35.5-23.8L77.7-13.3z"/>
	<path class="st0" d="M90.4,62.4c-28.6,0-51.9-23.3-51.9-51.9c0-28.6,23.3-51.9,51.9-51.9s51.9,23.3,51.9,51.9
		C142.3,39.1,119,62.4,90.4,62.4z M90.4-39.4c-27.5,0-49.9,22.4-49.9,49.9c0,27.5,22.4,49.9,49.9,49.9c27.5,0,49.9-22.4,49.9-49.9
		C140.3-17,117.9-39.4,90.4-39.4z"/>
</g>
</svg>
