<?xml version="1.0" encoding="utf-8"?>
<!-- Generator: Adobe Illustrator 19.1.0, SVG Export Plug-In . SVG Version: 6.00 Build 0)  -->
<svg version="1.1" id="Layer_1" xmlns="http://www.w3.org/2000/svg" xmlns:xlink="http://www.w3.org/1999/xlink" x="0px" y="0px"
	 viewBox="0 0 29 53" style="enable-background:new 0 0 29 53;" xml:space="preserve">
<style type="text/css">
	.st0{fill:#231F20;}
</style>
<g id="vDPK1h.tif">
	<g>
		<g>
			<path class="st0" d="M29,26.5c0,3.8,0,7.6,0,11.4c0,7.2-4.9,13.1-11.9,14.4c-8,1.6-16-4.3-16.9-12.4C0.1,39.2,0,38.5,0,37.7
				c0-7.6,0-15.2,0-22.8C0,6.5,7.3-0.2,15.6,0.5C23.2,1.1,28.9,7.3,29,14.9C29,18.8,29,22.6,29,26.5z M26.9,26.5
				C26.9,26.5,26.9,26.5,26.9,26.5c0.1-3.4,0.1-6.7,0-10.1c0-1.2,0-2.4-0.2-3.6C25.4,4.3,15.7-0.3,8.3,4.2C4,6.7,2,10.6,2,15.6
				c0,7.3,0,14.6,0,21.9c0,0.9,0.1,1.8,0.2,2.7C3.1,46,8.6,51,15.6,50.5c6-0.4,11.1-5.6,11.3-11.8C27,34.6,26.9,30.6,26.9,26.5z"/>
			<path class="st0" d="M15.5,16.1c0,1,0,2,0,3c0,0.8-0.4,1.2-1,1.2c-0.7,0-1-0.4-1-1.2c0-2.1,0-4.1,0-6.2c0-0.7,0.4-1.2,1-1.2
				c0.6,0,1,0.5,1,1.3C15.5,14,15.5,15.1,15.5,16.1z"/>
		</g>
	</g>
</g>
</svg>
