<?xml version="1.0" encoding="utf-8"?>
<!-- Generator: Adobe Illustrator 19.1.0, SVG Export Plug-In . SVG Version: 6.00 Build 0)  -->
<svg version="1.1" id="Layer_1" xmlns="http://www.w3.org/2000/svg" xmlns:xlink="http://www.w3.org/1999/xlink" x="0px" y="0px"
	 viewBox="-3 -1 22 23" style="enable-background:new -3 -1 22 23;" xml:space="preserve">
<style type="text/css">
	.st0{fill:#008348;}
</style>
<path class="st0" d="M10.4-0.6c-4.7,0-8.5,3.8-8.5,8.5c0,2,0.7,3.8,1.8,5.2l-6.6,6.6l1.8,1.8l6.6-6.6c1.4,0.9,3,1.5,4.8,1.5
	c4.7,0,8.5-3.8,8.5-8.5C18.9,3.2,15.1-0.6,10.4-0.6z M10.4,13.8c-3.3,0-5.9-2.7-5.9-5.9C4.5,4.7,7.2,2,10.4,2c3.2,0,5.9,2.6,5.9,5.9
	C16.3,11.2,13.7,13.8,10.4,13.8z"/>
</svg>
