<?xml version="1.0" encoding="utf-8"?>
<!-- Generator: Adobe Illustrator 19.1.0, SVG Export Plug-In . SVG Version: 6.00 Build 0)  -->
<svg version="1.1" id="Layer_1" xmlns="http://www.w3.org/2000/svg" xmlns:xlink="http://www.w3.org/1999/xlink" x="0px" y="0px"
	 viewBox="0 0 33 29" style="enable-background:new 0 0 33 29;" xml:space="preserve">
<style type="text/css">
	.st0{fill:#888888;}
</style>
<path class="st0" d="M32.9,4.7c-1.2,0.5-2.5,0.9-3.9,1.1c1.4-0.8,2.5-2.2,3-3.7c-1.3,0.8-2.7,1.3-4.3,1.6c-1.2-1.3-3-2.1-4.9-2.1
	c-3.7,0-6.7,3-6.7,6.7c0,0.5,0.1,1,0.2,1.5c-5.6-0.3-10.6-3-13.9-7c-0.6,1-0.9,2.2-0.9,3.4c0,2.3,1.2,4.4,3,5.6
	c-1.1,0-2.1-0.3-3-0.8c0,0,0,0.1,0,0.1c0,3.3,2.3,6,5.4,6.6c-0.6,0.2-1.2,0.2-1.8,0.2c-0.4,0-0.9,0-1.3-0.1c0.9,2.7,3.3,4.6,6.3,4.7
	c-2.3,1.8-5.2,2.9-8.4,2.9c-0.5,0-1.1,0-1.6-0.1c3,1.9,6.5,3,10.3,3c12.4,0,19.2-10.3,19.2-19.2c0-0.3,0-0.6,0-0.9
	C30.9,7.3,32,6.1,32.9,4.7z"/>
</svg>
